<?xml version="1.0" encoding="UTF-8"?>
<svg version="1.1" viewBox="0 0 1600 1600" width="1280" height="1280" xmlns="http://www.w3.org/2000/svg">
<path transform="translate(324 669)" d="m0 0c0.817-0.00666 1.63-0.0133 2.48-0.0202 1.73-0.0101 3.45-0.0148 5.18-0.0145 2.62-0.00436 5.24-0.0407 7.86-0.0786 1.68-0.00587 3.37-0.00984 5.05-0.0117 0.774-0.0144 1.55-0.0287 2.35-0.0435 7.14 0.059 12.3 2.32 17.4 7.25 5.21 7.96 4.59 17.1 4.12 26.2-0.33 0.99-0.66 1.98-1 3-3.3 1.1-5.73 1.11-9.2 1.1-1.21-0.00322-2.42-0.00645-3.66-0.00977-1.89-0.0126-1.89-0.0126-3.83-0.0254-1.91-0.00677-1.91-0.00677-3.86-0.0137-3.15-0.0118-6.3-0.0283-9.45-0.0488 0.33 3.3 0.66 6.6 1 10 0.799 0.0374 1.6 0.0748 2.42 0.113 16.4 0.98 29.4 5.75 42.5 15.4 2.8 2 2.8 2 6.1 2.44 0.668-0.125 1.34-0.25 2.02-0.379 4.5-0.714 6.32-0.193 10.2 2.01 3.15 2.43 4.26 4.65 5.77 8.36 0.354 3.89-0.00671 7.03-0.75 10.9-0.716 5.05 1.47 8.74 3.75 13.1 1.36 3.11 2.08 5.48 2.62 8.88 1.07 4.6 3.76 6.68 7.4 9.48 1.97 1.64 1.97 1.64 3.54 3.78 1.38 2.15 1.38 2.15 4.43 2.86 1.56 0.0674 3.13 0.0851 4.69 0.0625 0.808-0.00902 1.62-0.018 2.45-0.0273 0.615-0.0116 1.23-0.0232 1.86-0.0352 0.147-0.785 0.294-1.57 0.445-2.38 1.82-8.52 4.24-13.7 11.6-18.6 4.45-1.27 8.97-1.16 13.6-1.17 0.82-0.00333 1.64-0.00666 2.48-0.0101 1.73-0.00505 3.46-0.00741 5.19-0.00725 2.63-0.00218 5.26-0.0204 7.89-0.0393 1.69-0.00293 3.37-0.00492 5.06-0.00586 0.779-0.00719 1.56-0.0144 2.36-0.0218 5.62 0.0232 11.1 0.31 15.6 4.02 0.55 0.674 1.1 1.35 1.67 2.04 0.563 0.666 1.13 1.33 1.71 2.02 3.81 5.57 3.73 10.4 3.61 17-0.00902 0.884-0.018 1.77-0.0273 2.68-0.0235 2.17-0.0593 4.34-0.0977 6.51-3.8 0.886-7.33 1.13-11.2 1.13-1.85 0.00473-1.85 0.00473-3.74 0.00955-1.34-0.00179-2.67-0.00384-4.01-0.00613-1.38 6.74e-4 -2.76 0.00164-4.13 0.0029-2.88 0.00147-5.76-6.59e-4 -8.64-0.00534-3.7-0.00571-7.39-0.0024-11.1 0.00357-2.84 0.00361-5.68 0.00247-8.53-1.28e-4 -1.36-6.68e-4 -2.73 1.54e-4 -4.09 0.00248-1.9 0.00253-3.8-0.00201-5.7-0.0069-1.08-7.96e-4 -2.16-0.00159-3.28-0.00241-2.56-0.127-2.56-0.127-4.56-1.13-0.625-3.06-0.625-3.06-1-6-8.37-0.567-8.37-0.567-15.6 2.52-0.843 1.81-1.64 3.65-2.43 5.48-2.29 1.46-4.39 2.15-7 3-0.00258 0.583-0.00516 1.17-0.00781 1.77-0.259 5.5-1.3 9.1-4.12 13.9-3.61 6.59-3.01 11.5-2.01 18.7 0.159 4.25-0.473 6.17-2.86 9.66-4.8 3.94-9.86 3.44-15.8 3.59-3.4 0.434-4.1 0.851-6.18 3.41h-2v2c-14.2 7.52-27.6 13.7-44 14-0.0516 3.33-0.0516 3.33 1 7 1.58 1.45 3.26 2.48 5.09 3.62 4.49 3.24 8.69 8.96 9.91 14.4-0.104 6.42-1.64 10.3-6 15-3.81 3.63-6.82 4.3-11.9 4.5-5.59-0.215-8.71-0.965-13.1-4.5-4.1-5.05-4.8-9.59-4.59-16.1 0.983-4.94 3.82-7.77 7.59-10.9 0.969-0.639 1.94-1.28 2.94-1.94 2.52-2.52 2.36-3.36 2.38-6.81-0.0801-1.42-0.177-2.84-0.312-4.25-1.12-0.0735-1.12-0.0735-2.27-0.148-0.985-0.0748-1.97-0.15-2.98-0.227-0.975-0.0696-1.95-0.139-2.95-0.211-2.73-0.405-4.39-1.13-6.8-2.41-1.92-0.34-1.92-0.34-3.88-0.688-9.71-2.05-18.8-7.49-26.3-13.9-3.51-2.6-6.52-2.42-10.7-2.13-3.65 0.043-5.76-0.185-8.62-2.5-3.4-3.73-4.4-5.25-4.75-10.3 0.25-3.44 0.25-3.44 2.25-6.44-0.125-5.15-2.47-8.94-4.83-13.4-1.18-2.66-1.51-4.7-1.79-7.57-1.1-7.08-7.16-11.6-12.4-16.1-3.69-1.84-7.98-1.62-12-1-2.1 2.3-2.1 2.3-3 5-2.73 1.37-4.91 1.13-7.96 1.15-1.25 0.00638-2.5 0.0128-3.79 0.0193-1.37 0.00153-2.74 0.00264-4.12 0.00337-1.4 0.00321-2.8 0.00658-4.21 0.0101-2.94 0.00599-5.88 0.00784-8.82 0.00725-3.77-1.02e-4 -7.54 0.0136-11.3 0.0308-2.9 0.0111-5.79 0.0131-8.69 0.0126-1.39 0.00118-2.78 0.00561-4.17 0.0133-1.94 0.00979-3.89 0.00566-5.83 8.95e-4 -1.11 0.00143-2.21 0.00285-3.35 0.00432-2.74-0.247-2.74-0.247-5.74-2.25-0.279-2.65-0.372-5.04-0.312-7.69-0.00322-0.695-0.00645-1.39-0.00977-2.11 0.0666-6.49 1.06-12.4 5.32-17.5 0.516-0.656 1.03-1.31 1.56-1.99 7.35-5.13 17.7-4.01 26.3-3.96 2.12 0.0107 4.24 4.86e-5 6.36-0.0127 18.9-0.0216 18.9-0.0216 24.6 4.52 3.62 5.14 5.28 11.8 7.19 17.8 3.97 0.487 7.52 0.888 11.1-1.23 1.75-1.52 3.36-3.08 4.95-4.77 1.64-1.64 3.24-3.2 5.03-4.69 2.64-3.08 3.5-6.41 4.54-10.2 1.35-4.85 2.81-8.73 5.44-13.1-0.238-3.04-0.639-5.28-2-8-0.661-4.72-0.0728-7.43 2.62-11.2 2.8-3.36 5.09-5.49 9.38-6.75 1.32 0.289 2.63 0.605 3.94 0.938 5.99 0.994 9.9-2.73 14.5-6.03 0.638-0.458 1.28-0.915 1.93-1.39 8.76-6.28 18.4-8.6 29-9.64 0.827-0.0864 1.65-0.173 2.51-0.262 2.02-0.21 4.04-0.412 6.06-0.613v-10c-0.797 0.0209-1.59 0.0419-2.42 0.0635-3.61 0.0832-7.22 0.135-10.8 0.187-1.25 0.0335-2.51 0.067-3.8 0.102-1.81 0.0193-1.81 0.0193-3.65 0.0391-1.11 0.0209-2.22 0.0419-3.36 0.0635-3.62-0.56-4.76-1.55-6.93-4.45-0.435-2.72-0.62-4.92-0.562-7.62 0.00951-0.711 0.019-1.42 0.0288-2.16 0.276-7.04 2.24-12.6 7.03-17.9 5.51-4.96 10.9-5.67 18-5.69zm-15.8 12.5c-2.1 3.44-2.15 5.55-2.02 9.55 0.0245 1.15 0.049 2.3 0.0742 3.48-0.0686 2.67-0.0686 2.67 1.24 3.77 1.65 0.104 3.3 0.139 4.95 0.145 1.58 0.00957 1.58 0.00957 3.2 0.0193 1.15 0.00111 2.3 0.00223 3.48 0.00337 1.76 0.00499 1.76 0.00499 3.55 0.0101 2.48 0.00507 4.96 0.00741 7.44 0.00725 3.81 0.00219 7.62 0.0203 11.4 0.0393 2.4 0.00293 4.81 0.00492 7.21 0.00586 1.72 0.0108 1.72 0.0108 3.47 0.0218 1.06-0.00308 2.12-0.00615 3.21-0.00932 0.934 0.00143 1.87 0.00285 2.83 0.00432 2.45-0.0325 2.45-0.0325 4.25-2.25 0.814-5.87 0.402-11-3-16-2.51-2.66-4.51-3.21-8.05-3.37-1.64-0.013-3.28-0.00897-4.92 0.00903-0.87-4.99e-4 -1.74-9.97e-4 -2.64-0.00151-1.84 0.00234-3.68 0.012-5.51 0.0286-2.81 0.0236-5.61 0.0206-8.42 0.0139-1.79 0.00558-3.58 0.0127-5.37 0.0215-1.25-0.00137-1.25-0.00137-2.54-0.00276-5.61 0.0679-9.65 0.462-13.9 4.51zm25.3 24.8v2c0.66-0.33 1.32-0.66 2-1-0.66-0.33-1.32-0.66-2-1zm-16 24c-5.16 6.34-5.16 6.34-7 14h20v-22c-4.84 0-9.54 4.96-13 8zm21-8c-1.97 4.86-2.11 8.61-1.69 13.8 0.0483 0.68 0.0967 1.36 0.146 2.06 0.0152 3.35 0.0152 3.35 1.54 6.13 1.34 0.0863 2.69 0.107 4.04 0.0977 0.809-0.00322 1.62-0.00645 2.45-0.00977 1.28-0.0126 1.28-0.0126 2.58-0.0254 0.854-0.00451 1.71-0.00902 2.59-0.0137 2.12-0.0118 4.23-0.0298 6.35-0.0488 0.33-0.66 0.66-1.32 1-2-1.82-4.39-4.18-7.64-7.38-11.1-0.75-0.828-1.5-1.66-2.27-2.51-2.33-2.35-4.67-4.42-7.35-6.37h-2zm19 5c1.42 3.74 3.1 7.23 5 10.8 0.516 0.964 1.03 1.93 1.56 2.92 1.23 2.44 1.23 2.44 3.44 3.33 2.55 0.0717 5.07 0.0931 7.62 0.0625 0.706-0.00451 1.41-0.00902 2.14-0.0137 1.74-0.0118 3.49-0.0297 5.23-0.0488-2.23-6.32-5.88-9.34-11.7-12.5-4.4-2.06-8.46-3.74-13.3-4.54zm-69 11c-1.54 2.67-1.54 2.67-2 5 1.16 1.39 1.16 1.39 4.38 1.1 1.39-0.00667 2.79-0.0186 4.18-0.0352 0.711-0.00451 1.42-0.00902 2.15-0.0137 1.76-0.0118 3.52-0.0298 5.28-0.0488 1.34-2.29 2.67-4.58 4-6.88 0.382-0.651 0.763-1.3 1.16-1.97 2.12-3.36 2.12-3.36 2.84-7.15-8.24 0-16.2 4.28-22 10zm-21 6c0.292 3.79 0.545 6.35 2.75 9.5 2.16 1.76 2.16 1.76 4.88 1.38 2.52-0.74 2.52-0.74 4.38-2.88 0.281-2.14 0.281-2.14 0.188-4.5-0.00645-0.794-0.0129-1.59-0.0195-2.41-0.0412-2.15-0.0412-2.15-1.17-4.09-4.74-0.273-7.49-0.374-11 3zm120 1c-0.0675 3.85 0.178 6.03 2.69 9 3.21 1.39 5.01 1.06 8.31 0 2.12-1.46 2.12-1.46 3-4 0.0334-2.86-0.393-5.15-1-8-5.09-2.55-9.43-1.22-13 3zm-102 7c-0.103 0.804-0.206 1.61-0.312 2.44-0.688 2.56-0.688 2.56-2.62 3.75-3.06 0.812-3.06 0.812-5.48 1.09-5.01 0.512-5.01 0.512-8.98 3.28-1.06 2.11-1.84 4.21-2.61 6.45-0.38 0.861-0.761 1.72-1.15 2.61-2.16 4.51-2.16 4.51-2.73 9.36 1.27 2.91 3.17 4.89 5.32 7.21 0.803 0.88 1.61 1.76 2.43 2.67 3.65 3.68 7.18 3.51 12.1 3.83 0.737 0.0599 1.47 0.12 2.23 0.182 1.92 0.128 3.84 0.137 5.77 0.131 2.38-2.38 2.29-3.05 2.49-6.3 0.0949-1.31 0.0949-1.31 0.192-2.64 0.0946-1.39 0.0946-1.39 0.191-2.82 0.624-7.84 1.76-14.9 4.22-22.3 0.918-2.96 1.46-5.85 1.9-8.91-4.14-1.33-9.03-1.98-13 0zm20 1c-1.37 2.74-2.15 4.84-2.88 7.75-0.208 0.78-0.416 1.56-0.63 2.36-2.34 9.84-1.95 19.9-1.5 29.9 10.2 1.86 10.2 1.86 19.8-0.688 2.22-2.34 4.21-4.76 6.19-7.31 0.692-0.568 1.38-1.14 2.1-1.72 2.63-3.14 2.36-5.18 2.29-9.23-0.00566-0.66-0.0113-1.32-0.0172-2-0.0223-2.1-0.0725-4.2-0.123-6.3-0.0201-1.43-0.0383-2.85-0.0547-4.28-0.044-3.49-0.113-6.98-0.195-10.5-3.04-0.0542-6.08-0.0938-9.12-0.125-0.856-0.0168-1.71-0.0335-2.59-0.0508-6.91-0.133-6.91-0.133-13.3 2.18zm32-1c-0.124 4.04-0.215 8.08-0.275 12.1-0.0251 1.37-0.0591 2.75-0.103 4.12-0.061 1.98-0.0864 3.96-0.111 5.94-0.0262 1.19-0.0524 2.38-0.0793 3.6 0.73 4.16 2.41 5.54 5.57 8.23 1.59 1.82 3.13 3.68 4.67 5.55 1.66 1.81 2.75 2.42 5.21 2.57 1.12-0.00786 1.12-0.00786 2.25-0.0159 0.806-0.00322 1.61-0.00645 2.44-0.00977 0.842-0.00838 1.68-0.0168 2.55-0.0254 1.27-0.00677 1.27-0.00677 2.57-0.0137 2.1-0.0118 4.2-0.0297 6.3-0.0488 2.88-8.65-0.573-19.4-2.44-28.1-0.326-1.52-0.326-1.52-0.659-3.07-0.949-4.24-1.81-8.03-3.9-11.9-2.69-0.0272-5.37-0.0469-8.06-0.0625-1.13-0.0126-1.13-0.0126-2.28-0.0254-0.744-0.00322-1.49-0.00645-2.26-0.00977-0.676-0.00524-1.35-0.0105-2.05-0.0159-3.15 0.152-6.24 0.636-9.36 1.11zm33 0c0.509 5.21 1.38 10.3 2.38 15.4 1.15 6.01 2.25 12 3.31 18.1 0.131 0.748 0.263 1.5 0.398 2.27 0.306 1.74 0.61 3.49 0.915 5.23 6.21 1.84 13.2 1.83 19.4 0 3.84-2.93 6.83-5.41 8.62-10 0.102-4.89-0.772-9.29-2-14-0.206-0.861-0.413-1.72-0.625-2.61-0.84-2.4-1.46-3.71-3.38-5.39-2.99-0.724-5.91-1.01-8.97-1.3-4.46-1.02-6.25-3.62-9.14-6.98-2.24-2.03-3.34-2.27-6.32-2.28-3.37 0.174-3.37 0.174-4.56 1.56zm-201 30c-2.62 4.32-4.05 8.5-3.88 13.6 0.615 2.6 0.615 2.6 2.88 3.44 1.7 0.0905 3.39 0.118 5.09 0.114 1.06-7.55e-5 2.12-1.51e-4 3.21-2.29e-4 1.15-0.00516 2.3-0.0103 3.48-0.0156 1.76-0.00212 1.76-0.00212 3.56-0.00429 3.76-0.00561 7.52-0.0182 11.3-0.0309 2.54-0.00501 5.09-0.00958 7.63-0.0137 6.25-0.011 12.5-0.0278 18.7-0.0488 0.0779-2.24 0.134-4.49 0.18-6.73 0.0334-1.25 0.0667-2.5 0.101-3.79-0.354-4.39-1.67-6.37-4.77-9.35-5.13-3.87-13.4-2.44-19.6-2.49-1.79-0.0165-3.58-0.0438-5.37-0.082-2.58-0.0549-5.17-0.0767-7.75-0.0913-0.794-0.0227-1.59-0.0453-2.41-0.0687-5.84 0.0221-8.35 1.39-12.4 5.59zm279-1c-2.38 5.41-2.48 11.2-2 17 1.62 1.62 3.42 1.18 5.66 1.24 0.991 0.0264 1.98 0.0528 3 0.08 1.08 0.023 2.16 0.046 3.27 0.0697 1.65 0.0383 1.65 0.0383 3.34 0.0773 2.34 0.0521 4.67 0.102 7.01 0.148 3.58 0.0745 7.16 0.165 10.7 0.257 2.26 0.0485 4.53 0.0961 6.79 0.143 1.08 0.0291 2.15 0.0581 3.26 0.0881 1.5 0.0254 1.5 0.0254 3.02 0.0513 0.879 0.0192 1.76 0.0384 2.66 0.0582 2.54-0.0558 2.54-0.0558 5.25-2.21 0.887-5.31 0.453-11.2-2-16-4.02-4.15-6.56-5.57-12.3-5.67-1.17 0.0199-1.17 0.0199-2.37 0.0402-0.821-0.00241-1.64-0.00482-2.49-0.00731-1.73 9.76e-4 -3.46 0.0143-5.18 0.0393-2.63 0.0343-5.27 0.0206-7.9 0.00122-1.68 0.0069-3.37 0.0166-5.05 0.0293-0.781-0.00496-1.56-0.00992-2.37-0.015-5.18 0.111-8.24 1.11-12.3 4.58zm-196 10.2c-2.43 2.55-2.43 2.55-2.25 5.31 1.26 2.96 2.93 5.1 5.06 7.5 2.63-0.376 4.07-1.05 6.25-2.62 2.43-3.3 2.33-5.38 1.75-9.38-1.63-2.06-1.63-2.06-4-3-4.07-0.409-4.07-0.409-6.81 2.19zm73.8 1.81c0.502 4.39 1.92 6.83 5 10 1.86 1.32 1.86 1.32 4 1 2.92-1.91 2.92-1.91 5-5 0.493-3.57 0.725-5.82-1.19-8.94-5.08-2.98-8.53-0.248-12.8 2.94zm78 0c0.0636 3.7 0.0636 3.7 1 7 0.99 0.33 1.98 0.66 3 1 0.33 0.99 0.66 1.98 1 3 2.56-0.366 4.13-1.08 6.31-2.5 2.3-3.41 1.73-5.63 1.14-9.57-0.278-1.92-0.278-1.92-1.46-2.93-4.99-0.567-7.7 0.105-11 4zm-136 8.36c-0.34 0.87-0.681 1.74-1.03 2.64-1.61 1.41-1.61 1.41-3.19 2.5-2.99 2.17-2.99 2.17-3.38 5 0.668 2.97 1.96 4.92 3.56 7.5 0.289 1.15 0.577 2.31 0.875 3.5 1.36 4.24 2.56 5.83 6.12 8.5 1.61 0.484 3.24 0.917 4.88 1.31 4.26 1.07 5.96 2.29 8.56 5.81 2.1 2.76 3.03 3.74 6.44 4.62 2.73 0.23 5.39 0.337 8.12 0.258-0.266-1.05-0.531-2.1-0.805-3.18-0.357-1.42-0.714-2.84-1.07-4.25-0.174-0.688-0.348-1.38-0.527-2.08-0.542-2.16-1.07-4.32-1.6-6.48-0.178-0.723-0.356-1.45-0.54-2.19-1.32-5.6-2.04-11.2-2.59-16.9-0.0864-0.866-0.173-1.73-0.262-2.62-0.209-2.1-0.412-4.21-0.613-6.31-3.44-0.145-6.87-0.234-10.3-0.312-0.976-0.0419-1.95-0.0838-2.96-0.127-5.57-0.362-5.57-0.362-9.7 2.8zm32-1.36c-1.65 14.5 0.558 27.6 6 41 2.45 2.45 8.69 1.49 12 1.62 1.04 0.0516 2.07 0.103 3.14 0.156 0.985 0.0438 1.97 0.0877 2.98 0.133 0.91 0.0408 1.82 0.0815 2.76 0.124 2.1 0.208 2.1 0.208 3.12-1.04 0.0884-2.38 0.115-4.72 0.0977-7.1-0.00212-1.06-0.00212-1.06-0.00429-2.15-0.00561-2.27-0.0182-4.54-0.0309-6.82-0.00501-1.54-0.00958-3.07-0.0137-4.61-0.011-3.78-0.0283-7.55-0.0488-11.3-1.32-0.66-2.64-1.32-4-2v-2h-2c-0.268-0.598-0.536-1.2-0.812-1.81-1.22-2.25-2.22-3.57-4.19-5.19-2.01-0.426-2.01-0.426-4.2-0.328-0.798 0.00516-1.6 0.0103-2.42 0.0156-0.829 0.0206-1.66 0.0412-2.51 0.0625-1.25 0.00773-1.25 0.00773-2.54 0.0156-3.99-0.331-3.99-0.331-7.34 1.23zm44.5 1.92c-0.76 1.53-0.76 1.53-1.54 3.08-2.69 1.75-2.69 1.75-5 3-1.48 2.96-1.13 5.64-1.13 8.94-0.00144 1.02-0.00144 1.02-0.0029 2.07-6.81e-4 1.44 0.00117 2.89 0.00534 4.33 0.00536 2.22 4.67e-5 4.43-0.00635 6.65 6.61e-4 1.4 0.00194 2.8 0.00391 4.2 0.00113 1.28 0.00226 2.56 0.00342 3.88-0.206 2.82-0.206 2.82 1.13 3.93 1.63 0.087 3.27 0.107 4.91 0.0977 0.989-0.00322 1.98-0.00645 3-0.00977 1.56-0.0126 1.56-0.0126 3.15-0.0254 1.04-0.00451 2.09-0.00902 3.17-0.0137 2.59-0.0118 5.18-0.0283 7.77-0.0488 2.77-5.78 4.86-11.4 6.19-17.6 0.167-0.766 0.335-1.53 0.507-2.32 1.52-7.33 2.09-14.6 2.31-22.1-3.64-1.82-7.86-1.36-11.9-1.44-0.911-0.0458-1.82-0.0915-2.76-0.139-5.7-0.207-5.7-0.207-9.83 3.49zm31.5-1.92c-0.335 2.07-0.613 4.15-0.867 6.24-0.164 1.3-0.327 2.59-0.496 3.93-0.255 2.06-0.507 4.11-0.756 6.17-2.57 21-2.57 21-5.88 27.7 3.44 2.29 4.99 2.18 9 2v-3c0.598-0.0412 1.2-0.0825 1.81-0.125 3.27-1.31 3.7-3.78 5.19-6.88 2.92-2.7 5.03-3.32 8.94-3.69 2.81-0.52 4.56-0.872 6.72-2.76 1.46-2.13 2.4-4.15 3.34-6.55 0.41-1.01 0.82-2.02 1.24-3.07 1.59-4.9 2.63-8.22 0.227-13-3.66-4.66-3.66-4.66-8.47-7.98-1.44-0.0951-2.88-0.131-4.32-0.133-0.846-0.00129-1.69-0.00258-2.56-0.00391-0.885 0.00387-1.77 0.00773-2.68 0.0117-0.889-0.00387-1.78-0.00773-2.69-0.0117-0.845 0.00129-1.69 0.00258-2.56 0.00391-0.778 0.00113-1.56 0.00226-2.36 0.00342-1.85-0.0697-1.85-0.0697-2.83 1.13zm-108 39.1c-1.28 3.77-0.993 6.11 0 9.94 1.11 2.02 1.11 2.02 3 3 2.83 0.424 4.3 0.513 6.64-1.21 1.81-2.38 1.73-3.89 1.68-6.86-0.00387-0.878-0.00773-1.76-0.0117-2.66-0.0918-2.47-0.0918-2.47-2.3-4.28-5.05-0.724-5.05-0.724-9 2.06zm121 0.25c-2.53 2.52-2.53 2.52-3.38 5.69 1.2 1.91 1.2 1.91 2.94 3.69 0.566 0.623 1.13 1.25 1.71 1.89 0.445 0.471 0.889 0.941 1.35 1.43 2.59-0.35 4.58-0.738 6.81-2.12 1.94-3.06 1.68-5.35 1.19-8.88-2.18-2.53-2.18-2.53-5-4-3.21-0.331-3.21-0.331-5.62 2.31zm-22.4 6.69c-3.85 6.15-7.24 12.3-10 19 6.24-0.4 10.2-2.53 15.3-5.94 0.715-0.456 1.43-0.911 2.17-1.38 2.74-1.77 5.21-3.37 7.52-5.68v-4c-3.24-0.919-6.39-1.28-9.75-1.56-0.985-0.0838-1.97-0.168-2.98-0.254-1.12-0.0909-1.12-0.0909-2.27-0.184zm-80 2c-0.144 3.42-0.144 3.42 1 7 2.4 1.76 4.33 2.79 7 4 2.08 1.08 4.17 2.17 6.25 3.25 4.17 2.21 4.17 2.21 8.75 2.75-1.54-4.14-3.51-7.94-5.62-11.8-0.325-0.597-0.65-1.19-0.984-1.81-0.794-1.46-1.59-2.92-2.39-4.38-2.15-0.0269-4.29-0.0463-6.44-0.0625-1.79-0.0174-1.79-0.0174-3.62-0.0352-2.83-0.241-2.83-0.241-3.94 1.1zm22-1c3.24 8.1 8.05 15.6 15 21 2.7 1.12 2.7 1.12 5 1 1.23-1.01 1.23-1.01 1.11-3.04-0.00786-1.31-0.00786-1.31-0.0159-2.65-0.0025-0.85-5e-3 -1.7-0.00757-2.58-0.0091-1.09-0.0182-2.17-0.0276-3.29-0.0309-5.17-0.0309-5.17-0.0625-10.4h-21zm28 1c-0.0579 3.12-0.0936 6.25-0.125 9.38-0.0168 0.889-0.0335 1.78-0.0508 2.7-0.00645 0.851-0.0129 1.7-0.0195 2.58-0.0105 0.786-0.0209 1.57-0.0317 2.38 0.0471 2.21 0.0471 2.21 2.23 3.97 7.37-2.23 12.1-7.54 16.1-13.9 1.19-2.67 1.56-5.24 1.95-8.12-2.96-0.0269-5.92-0.0468-8.88-0.0625-1.26-0.0126-1.26-0.0126-2.55-0.0254-0.806-0.00322-1.61-0.00645-2.44-0.00977-0.744-0.00524-1.49-0.0105-2.25-0.0159-1.97-0.00434-1.97-0.00434-3.88 1.11zm-13 51c-2.27 2.73-2.27 2.73-1.81 5.38 1.26 4.09 2.73 6.78 6.12 9.44 3.29 1.45 5.12 1.77 8.69 1.19 3.58-2.3 5.59-3.81 7-7.88 0-3.75-0.654-6.62-2-10.1-5.92-3.95-13.1-3.31-18 2z" fill="#060606"/>
<path transform="translate(1111,749)" d="m0 0c22.8 0.33 45.5 0.66 69 1 0 14.5 0 14.5-3.91 18.5-0.817 0.731-0.817 0.731-1.65 1.48-0.549 0.54-1.1 1.08-1.66 1.64-1.56 1.52-3.15 2.98-4.77 4.43-0.719 0.651-1.44 1.3-2.18 1.97-1.58 1.37-3.2 2.7-4.82 4.03-0.763 0.763-1.53 1.53-2.31 2.31-3.34 3.34-6.86 6.46-10.4 9.6-4.01 3.46-4.01 3.46-6.3 8.09 1.15 0.0251 2.29 0.0501 3.47 0.0759 4.24 0.0939 8.47 0.194 12.7 0.296 1.84 0.0434 3.67 0.0851 5.51 0.125 2.63 0.0575 5.27 0.121 7.9 0.186 1.24 0.0251 1.24 0.0251 2.5 0.0506 5.79 0.152 5.79 0.152 6.91 1.27 0.0721 1.69 0.0839 3.38 0.0625 5.06-0.00902 0.919-0.018 1.84-0.0273 2.79-0.0116 0.71-0.0232 1.42-0.0352 2.15h3c0.256-0.657 0.511-1.31 0.774-1.99 1.53-3.75 3.18-7.45 4.83-11.1 2.52-5.64 5.02-11.3 7.51-16.9 1.36-3.11 2.73-6.21 4.1-9.32 0.696-1.58 1.39-3.16 2.08-4.75 1.02-2.34 2.06-4.68 3.09-7.02 0.304-0.7 0.608-1.4 0.922-2.12 1.86-4.19 3.72-8.18 6.69-11.7 2.79-0.729 2.79-0.729 5.97-0.691 1.72 0.0087 1.72 0.0087 3.47 0.0176 1.19 0.0367 2.39 0.0735 3.62 0.111 1.2 0.00193 2.39 0.00387 3.63 0.00586 8.79 0.134 8.79 0.134 10.8 1.82 1.62 1.93 2.54 3.72 3.56 6.02 0.576 1.29 0.576 1.29 1.16 2.61 0.406 0.931 0.813 1.86 1.23 2.82 0.428 0.966 0.856 1.93 1.3 2.93 1.37 3.1 2.73 6.2 4.09 9.3 0.907 2.05 1.81 4.11 2.72 6.16 11.6 26.2 11.6 26.2 14.4 34.9 3.39-2.73 4.69-6.46 6.31-10.4 2.58-6.11 5.3-12.1 8.09-18.2 3.2-6.96 6.27-14 9.36-21 0.505-1.14 1.01-2.28 1.53-3.46 0.449-1.02 0.898-2.03 1.36-3.08 0.444-0.975 0.889-1.95 1.35-2.95 0.468-1.09 0.937-2.19 1.42-3.31 1.58-2.69 1.58-2.69 3.4-3.57 2.7-0.146 5.33-0.12 8.04 0.00366 1.12 0.0483 2.23 0.0967 3.38 0.146 1.74 0.0841 1.74 0.0841 3.51 0.17 1.76 0.0783 1.76 0.0783 3.56 0.158 2.9 0.13 5.79 0.265 8.69 0.404 5.41 11.1 10.4 22.5 15.3 33.8 3.87 9.01 7.86 17.9 12.2 26.8 2.54 5.21 2.54 5.21 2.54 7.41h-25c-3-7-3-7-3.84-9.39-1.08-1.87-1.08-1.87-3.6-2.22-1.03-0.0464-2.06-0.0928-3.12-0.141-1.15-0.0554-2.3-0.111-3.48-0.168-6.99-0.145-14-0.157-21-0.082-2.47 5.94-2.47 5.94-5 12-6.64 0.0741-13.3 0.129-19.9 0.165-2.26 0.0151-4.52 0.0356-6.78 0.0615-3.24 0.0363-6.49 0.0534-9.73 0.0667-1.01 0.0155-2.03 0.031-3.07 0.0469-1.41 3.4e-4 -1.41 3.4e-4 -2.85 6.87e-4 -0.828 0.00666-1.66 0.0133-2.51 0.0202-2.69-0.453-3.5-1.22-5.15-3.36-1.04-2.32-2.04-4.65-3-7-3.69-3.69-16.4-2.05-21.7-2.07-3.1 0.00802-6.2 0.0319-9.3 0.0681-0.29 0.922-0.29 0.922-0.586 1.86-0.26 0.808-0.521 1.62-0.789 2.45-0.383 1.2-0.383 1.2-0.773 2.43-0.852 2.26-0.852 2.26-2.85 5.26-2.67 0.405-2.67 0.405-6.12 0.448-1.94 0.0345-1.94 0.0345-3.91 0.0698-1.43 0.0101-2.85 0.0197-4.28 0.0289-1.48 0.0194-2.95 0.04-4.43 0.0616-3.12 0.0425-6.24 0.0751-9.36 0.1-3.91 0.0315-7.82 0.0812-11.7 0.138-15.1 0.215-30.2 0.251-45.4-0.268-1.19-0.0401-2.38-0.0803-3.6-0.122-8.07-0.326-8.07-0.326-9.21-1.46-0.622-6.24-0.301-11.5 3-17 1.78-1.83 3.66-3.44 5.64-5.06 2.65-2.18 5.16-4.48 7.68-6.82 4.59-4.19 9.32-8.15 14.2-12 2.67-2.24 5.14-4.54 7.51-7.11v-2c-0.954 0.0105-1.91 0.0209-2.89 0.0317-3.54 0.0362-7.08 0.0592-10.6 0.0781-1.53 0.0101-3.06 0.0237-4.59 0.041-2.2 0.0243-4.4 0.0356-6.61 0.0444-0.684 0.0103-1.37 0.0206-2.07 0.0313-3.65 8.61e-4 -5.09-0.141-8.22-2.23-1.43-5.83-0.697-9.72 0-16zm116 21c-1.34 2.58-2.67 5.16-4 7.75-0.382 0.73-0.763 1.46-1.16 2.21-0.361 0.709-0.722 1.42-1.09 2.15-0.335 0.649-0.67 1.3-1.02 1.97-0.972 2.2-0.972 2.2-0.734 5.92 2.49 1.24 4.23 1.13 7 1.12 1.33 0.00387 1.33 0.00387 2.69 0.00781 2.34 0.0185 2.34 0.0185 4.31-1.13-0.28-7.49-1.48-13.4-5-20h-1zm87 2c-3.99 6.27-6.46 11.4-6 19 2.15 0.0269 4.29 0.0463 6.44 0.0625 1.19 0.0116 2.39 0.0232 3.62 0.0352 2.83 0.241 2.83 0.241 3.94-1.1 0.729-5.69-1.15-11.1-4-16-2.03-1.32-2.03-1.32-4-2z" fill="#060606"/>
<path transform="translate(724 753)" d="m0 0c8.18 5.77 12.1 13.2 14.3 22.9 0.0825 1.2 0.165 2.39 0.25 3.62 0.0632 0.883 0.126 1.77 0.191 2.68 0.416 10.4-1.65 18.8-8.44 26.8-3.93 4-7.47 6.65-12.8 8.5-1.08 0.443-1.08 0.443-2.17 0.895-11.5 4.01-28.4 4.48-39.6-0.637-0.742-0.415-1.49-0.83-2.25-1.26-1.21-0.654-1.21-0.654-2.44-1.32-7.78-4.68-12.6-11.1-15.6-19.7-2.33-11.4-1.44-22.9 4.66-33 13.6-19.9 44.6-21 63.8-9.47zm-40.5 14.5c-4.61 6.23-6.67 13-5.54 20.7 1.47 6.19 4.1 10.8 9.54 14.3 3.18 1.06 5.54 1.17 8.88 1.19 1.03 0.0142 2.06 0.0284 3.12 0.043 5.39-0.413 8.48-2.21 12-6.23 4.1-6.15 3.62-13.8 3-21-1.56-5.39-4.23-8.95-9-12-7.24-2.41-16.4-2.61-22 3z" fill="#060606"/>
<path transform="translate(1374 749)" d="m0 0c1.28 0.00304 1.28 0.00304 2.58 0.00613 1.32-0.00144 1.32-0.00144 2.66-0.0029 1.87-6.83e-4 3.74 0.00118 5.61 0.00534 2.82 0.00527 5.64 9.84e-5 8.45-0.00635 32.8-0.0144 32.8-0.0144 42.2 8.59 4.65 4.89 5.87 9.82 5.75 16.5-0.587 4.48-2.68 7.74-6.1 10.6-1.68 1.21-3.42 2.34-5.18 3.45 1.31 3.62 2.89 6.43 5.19 9.5 10.8 15.1 10.8 15.1 10.8 20.5-5.44 0.75-10.8 1.16-16.3 1.31-1.17 0.0374-2.34 0.0748-3.55 0.113-3.14-0.426-3.14-0.426-5.26-1.9-2.62-3.53-4.58-7.29-6.56-11.2-0.794-1.55-1.59-3.09-2.39-4.64-0.346-0.682-0.693-1.36-1.05-2.07-0.773-1.6-0.773-1.6-1.88-2.61-1.49-0.0867-2.98-0.107-4.47-0.0977-0.81 0.0025-1.62 5e-3 -2.45 0.00757-1.04 0.0091-2.07 0.0182-3.14 0.0276-3.28 0.0206-6.56 0.0412-9.94 0.0625-0.33 6.93-0.66 13.9-1 21-3.28 0.186-6.56 0.371-9.94 0.562-1.55 0.092-1.55 0.092-3.14 0.186-1.21 0.0647-1.21 0.0647-2.45 0.131-1.25 0.0707-1.25 0.0707-2.52 0.143-1.95-0.0217-1.95-0.0217-2.95-1.02-0.0995-2.11-0.128-4.23-0.129-6.34-0.00263-0.993-0.00263-0.993-0.00531-2.01-0.00442-2.2-0.00148-4.39 0.00189-6.59-6.73e-4 -1.52-0.00164-3.04-0.0029-4.56-0.00148-3.19 6.77e-4 -6.38 0.00534-9.57 0.0057-4.1 0.00242-8.2-0.00357-12.3-0.00361-3.14-0.00247-6.28 1.28e-4 -9.42 6.69e-4 -1.51-1.59e-4 -3.02-0.00248-4.54-0.00253-2.11 0.00131-4.22 0.0069-6.33 7.96e-4 -1.2 0.00159-2.41 0.00241-3.64 0.235-4.99 2.78-3.82 7.16-3.83zm15 17.1c-0.499 2.1-0.499 2.1-0.688 4.44-0.0864 0.782-0.173 1.56-0.262 2.37-0.179 2.37-0.179 2.37 0.949 5.19 3.49 1.75 7.47 1.18 11.3 1.19 1.28 0.0184 1.28 0.0184 2.59 0.0371 5.4 0.0125 9.43-0.361 14-3.54 1.35-1.69 1.35-1.69 1.12-4.12-1.33-3.4-2.94-4.62-6-6.56-4.34-1.2-8.71-1.18-13.2-1.19-0.724-0.0122-1.45-0.0245-2.19-0.0371-4.27-0.163-4.27-0.163-7.62 2.22z" fill="#060606"/>
<path transform="translate(635 753)" d="m0 0c5.67 4.73 9.13 8.88 10.6 16.2-1.78 2.41-3.01 3-5.94 3.81-5.43 0.53-10.9-0.2-16.1-1.81-1.77-1.47-1.77-1.47-3.25-3.12-3.46-3.52-7.3-3.51-12-3.56-1.07-0.0283-1.07-0.0283-2.15-0.0571-2.32-0.00734-2.32-0.00734-5.6 0.745-1.99 2.42-3 3.85-3 7 3.94 1.73 7.78 2.68 12 3.5 0.984 0.196 0.984 0.196 1.99 0.395 4.26 0.829 8.52 1.44 12.8 1.98 7.37 1.11 14.1 3.48 19.2 9.12 1.93 2.99 2.69 4.51 2.94 8 0.103 1.26 0.206 2.52 0.312 3.81-0.0877 5.8-2.51 10.3-6.44 14.4-4.08 2.49-8.38 4.14-12.9 5.75-0.834 0.361-1.67 0.722-2.53 1.09-5.34 1.39-10.6 1.28-16.1 1.28-1.11 0.0245-2.22 0.049-3.37 0.0742-10.3 0.0361-20.2-2.02-28.4-8.75-2.75-2.87-4.55-5.87-5.63-9.7 0.142-3.82 0.29-5.29 3-8 3.27-0.336 3.27-0.336 7.25-0.375 1.3-0.0284 2.61-0.0567 3.95-0.0859 5.18 0.629 8.32 2.58 11.5 6.68 3.71 2.92 7.75 2.32 12.3 2.21 0.911 0.00709 1.82 0.0142 2.76 0.0215 4.81 0.164 4.81 0.164 8.97-1.86 1.44-1.54 1.44-1.54 1.08-3.66-0.828-2.29-0.828-2.29-3.88-3.94-1.92-0.451-1.92-0.451-4.01-0.633-0.757-0.0838-1.51-0.168-2.29-0.254-0.786-0.0786-1.57-0.157-2.38-0.238-0.797-0.0864-1.59-0.173-2.42-0.262-1.96-0.212-3.93-0.413-5.9-0.613v-2c-1.28 0.0825-2.56 0.165-3.88 0.25-6.94-0.0109-12.8-2.27-18.1-6.75-0.681-0.825-1.36-1.65-2.06-2.5-0.557-0.66-1.11-1.32-1.69-2-2.39-3.65-3.37-6.01-3.12-10.4 1.63-7.13 4.93-12.3 10.8-16.6 15.5-8.61 36.1-7.39 51.4 0.812z" fill="#060606"/>
<path transform="translate(945 749)" d="m0 0c2.99 1.39 3.54 3.77 4.82 6.73 0.264 0.599 0.528 1.2 0.8 1.81 0.856 1.95 1.69 3.91 2.52 5.87 0.586 1.34 1.17 2.69 1.76 4.03 1.15 2.63 2.29 5.27 3.42 7.9 1.47 3.42 2.96 6.84 4.46 10.2 0.788 1.8 1.57 3.59 2.35 5.39 1.34 3.07 2.72 6.11 4.12 9.16 0.417 0.915 0.835 1.83 1.26 2.77 0.82 1.79 1.64 3.58 2.47 5.37 0.37 0.809 0.739 1.62 1.12 2.45 0.332 0.72 0.665 1.44 1.01 2.18 0.715 1.92 0.715 1.92 0.715 4.92-3.23 0.227-6.46 0.428-9.69 0.625-0.912 0.0645-1.82 0.129-2.76 0.195-0.886 0.0516-1.77 0.103-2.69 0.156l-2.46 0.159c-2.4-0.135-2.4-0.135-7.4-2.14-1.65-3.3-3.3-6.6-5-10-10.2-0.33-20.5-0.66-31-1-0.33 1.98-0.66 3.96-1 6-0.66 1.98-1.32 3.96-2 6h-24c3.95-11.9 8.84-22.8 14.3-34.1 2.53-5.29 4.87-10.6 6.98-16.1 0.483-1.17 0.967-2.34 1.46-3.55 1.35-3.28 1.35-3.28 2.1-6.66 1.16-3.56 2.42-5.16 5.18-7.67 2.74-0.734 2.74-0.734 5.8-0.93 1.11-0.0717 2.21-0.143 3.35-0.217 6.03-0.179 12-0.118 18 0.296zm-13.2 21.9c-4.06 4.2-6.51 9.39-8 15 0.313 2.24 0.313 2.24 1 4 1.96 0.195 3.92 0.38 5.88 0.562 1.09 0.104 2.18 0.209 3.3 0.316 2.77 0.347 2.77 0.347 4.82-0.879-1.09-6.86-2.9-12.8-6-19h-1z" fill="#060606"/>
<path transform="translate(817 754)" d="m0 0c5.21 3.8 8.45 8.09 10.9 14.1 0.188 2.88 0.188 2.88 0 5-5.44 3.53-10.7 3.71-17 3-3.76-1.14-5.7-2.39-8.06-5.5-2.09-2.73-3.67-4.32-6.94-5.5-3.14-0.354-3.14-0.354-6.5-0.312-1.12-0.0168-2.25-0.0335-3.41-0.0508-3.37 0.396-4.58 1.2-7.09 3.36h-2c-3.65 8.84-6.18 16.3-3.02 25.6 1.59 3.66 3.35 6.27 6.72 8.45 5.1 2 10.9 1.4 16.3 0.902 4.11-1.88 5.59-3.38 8.08-7.12 1.62-1.96 2.48-2.77 4.98-3.38 2.4-0.125 4.73-0.0716 7.13 0.0645 0.819 0.0187 1.64 0.0374 2.48 0.0566 5.93 0.181 5.93 0.181 8.33 1.38 0.686 6.29-0.345 9.79-4.11 14.9-3.2 3.57-6.63 5.92-10.9 8.11-0.804 0.414-1.61 0.828-2.44 1.25-6.96 2.9-13.8 3.13-21.2 3.18-0.974 0.0102-1.95 0.0203-2.95 0.0308-11.5-0.139-22-4.06-30.3-12.4-5.82-7.34-7.62-14.7-7.51-23.9 0.00902-0.881 0.018-1.76 0.0273-2.67 0.273-10.3 2.76-18 10-25.5 16-13.3 41.1-14 58.5-3.07z" fill="#060606"/>
<path transform="translate(1056 750)" d="m0 0c0.868 0.00222 1.74 0.00444 2.63 0.00673 0.981 7.55e-5 1.96 1.51e-4 2.97 2.29e-4 1.07 0.00516 2.13 0.0103 3.23 0.0156 1.09 0.00141 2.17 0.00283 3.29 0.00429 3.48 0.00562 6.97 0.0182 10.5 0.0309 2.36 0.00501 4.71 0.00958 7.07 0.0137 5.79 0.0111 11.6 0.0278 17.4 0.0488 0.223 1.75 0.428 3.5 0.625 5.25 0.116 0.975 0.232 1.95 0.352 2.95 0.0248 2.96-0.307 4.38-1.98 6.8-2.31 0.828-2.31 0.828-5 1.25-0.887 0.15-1.77 0.299-2.69 0.453-2.31 0.297-2.31 0.297-4.31 0.297v36c6.93 0.495 6.93 0.495 14 1v14c-6.3 0.168-12.6 0.329-18.9 0.482-2.14 0.0533-4.28 0.109-6.42 0.166-3.08 0.0823-6.17 0.157-9.25 0.231-0.953 0.027-1.91 0.0541-2.89 0.0819-0.9 0.0201-1.8 0.0402-2.73 0.0609-0.786 0.02-1.57 0.04-2.38 0.0606-2.43-0.0823-2.43-0.0823-8.43-1.08v-14c3.96-0.66 7.92-1.32 12-2 0.33-11.2 0.66-22.4 1-34-3.96-0.99-7.92-1.98-12-3-1.37-2.75-1.13-5-1.12-8.06-0.00258-1.08-0.00516-2.17-0.00781-3.29 0.18-3.59 0.18-3.59 3.11-3.77z" fill="#060606"/>
<path transform="translate(836,749)" d="m0 0c15.8 0.33 31.7 0.66 48 1 1.12 11.2 1.12 11.2-1 16-3.96 0.66-7.92 1.32-12 2-0.0742 4.36-0.129 8.72-0.165 13.1-0.0151 1.48-0.0356 2.97-0.0615 4.45-0.0364 2.13-0.0534 4.26-0.0667 6.4-0.0236 1.92-0.0236 1.92-0.0476 3.89 0.0702 3.14 0.0702 3.14 1.72 5.1 2.68 1.8 5.42 1.55 8.56 1.68 0.679 0.134 1.36 0.268 2.06 0.406 2.48 3.72 2.3 5.6 2 10-0.66 1.65-1.32 3.3-2 5h-48c0.33-4.95 0.66-9.9 1-15 5.45-0.495 5.45-0.495 11-1 0.33-11.5 0.66-23.1 1-35h-8c-1.65-0.99-3.3-1.98-5-3 0.33-4.95 0.66-9.9 1-15z" fill="#060606"/>
<path transform="translate(984,750)" d="m0 0c3.65-0.0289 7.29-0.0468 10.9-0.0625 1.56-0.0126 1.56-0.0126 3.15-0.0254 0.989-0.00322 1.98-0.00645 3-0.00977 1.37-0.00786 1.37-0.00786 2.78-0.0159 2.13 0.114 2.13 0.114 3.13 1.11 0.0934 1.63 0.117 3.26 0.114 4.89-7.55e-5 1.04-1.51e-4 2.08-2.29e-4 3.15-0.00516 1.13-0.0103 2.26-0.0156 3.43-0.00141 1.15-0.00283 2.31-0.00429 3.49-0.00562 3.7-0.0182 7.4-0.0309 11.1-0.00501 2.5-0.00958 5-0.0137 7.5-0.0111 6.15-0.0278 12.3-0.0488 18.4 1.86-0.00786 1.86-0.00786 3.75-0.0159 4.57-0.018 9.14-0.0296 13.7-0.0391 1.98-0.00504 3.96-0.0119 5.95-0.0205 2.84-0.0121 5.68-0.0178 8.53-0.0222 0.892-0.00516 1.78-0.0103 2.7-0.0156 2.12-1.95e-4 4.24 0.0512 6.36 0.113 1 1 1 1 1.1 4.16-0.0116 1.29-0.0232 2.58-0.0352 3.9-0.00902 1.29-0.018 2.58-0.0273 3.91-0.0116 0.999-0.0232 2-0.0352 3.03-5.6 0.146-11.2 0.288-16.8 0.427-1.89 0.0476-3.79 0.096-5.68 0.146-10.4 0.272-20.9 0.481-31.3 0.521-1.35 0.00973-1.35 0.00973-2.72 0.0197-0.826 6.04e-4 -1.65 0.00121-2.5 0.00183-0.727 0.00205-1.45 0.00411-2.2 0.00623-1.8-0.121-1.8-0.121-3.8-1.12-1.19-3.26-1.13-6.46-1.13-9.9-0.00315-1.19-0.0063-2.38-0.00955-3.6 0.00202-1.28 0.00405-2.56 0.00613-3.88-9.57e-4 -1.32-0.00191-2.63-0.0029-3.99-0.00147-2.78 6.63e-4 -5.57 0.00534-8.35 0.0057-3.56 0.00242-7.13-0.00357-10.7-0.00449-3.41-0.00134-6.81 0.00113-10.2-0.00202-1.28-0.00405-2.56-0.00613-3.88 0.00315-1.19 0.0063-2.38 0.00955-3.6 7.96e-4 -1.04 0.00159-2.09 0.00241-3.17 0.112-2.41 0.433-4.43 1.13-6.73z" fill="#060606"/>
<path transform="translate(323 925)" d="m0 0c1.26-0.00786 1.26-0.00786 2.54-0.0159 1.77-0.0064 3.53-0.00511 5.3 0.00343 2.68 0.0085 5.37-0.0203 8.05-0.052 1.72-0.00161 3.45-0.00103 5.17 0.00195 0.793-0.0112 1.59-0.0225 2.4-0.034 6.25 0.077 11.5 1.69 16.2 5.87 5.26 5.76 5.79 12.5 5.66 19.9-9.67e-4 1.06-9.67e-4 1.06-0.00195 2.14-0.0267 3.13-0.189 5.62-1.19 8.61-2.73 1.36-4.91 1.15-7.96 1.18-1.25 0.0128-2.5 0.0257-3.79 0.0389-1.37 0.00817-2.74 0.0156-4.12 0.0224-0.689 0.00408-1.38 0.00815-2.09 0.0124-3.65 0.0209-7.29 0.0352-10.9 0.0445-3.77 0.0111-7.54 0.0455-11.3 0.0852-2.9 0.0261-5.79 0.0345-8.69 0.0381-1.39 0.00488-2.78 0.0165-4.17 0.035-1.94 0.0243-3.89 0.021-5.83 0.0165-1.66 0.0088-1.66 0.0088-3.35 0.0178-2.74-0.488-2.74-0.488-4.59-2.29-1.68-3.22-1.64-6.34-1.58-9.88 0.00685-0.714 0.0137-1.43 0.0208-2.16 0.222-7.32 2.12-12.4 6.79-18 5.72-4.63 10.3-5.58 17.5-5.56zm-14.6 12.3c-2.19 3.92-2.3 7.43-2.25 11.9 0.00902 0.985 0.018 1.97 0.0273 2.98 0.0116 0.748 0.0232 1.5 0.0352 2.27 7.81 0.0253 15.6 0.0428 23.4 0.0549 2.66 0.00504 5.32 0.0119 7.98 0.0205 3.82 0.0121 7.63 0.0178 11.4 0.0222 1.2 0.00516 2.4 0.0103 3.63 0.0156 1.1 7.55e-5 2.2 1.51e-4 3.34 2.29e-4 0.975 0.00222 1.95 0.00444 2.95 0.00673 2.18 0.128 2.18 0.128 3.21-1.12 0.722-6.07 0.0813-10.9-2.64-16.4-1.92-2.25-3.53-2.71-6.36-3.59-2.83-0.189-5.55-0.281-8.37-0.266-0.8-0.00191-1.6-0.00383-2.42-0.0058-1.69-0.00136-3.37 0.00231-5.06 0.0107-2.57 0.0107-5.14 9.59e-5 -7.71-0.0127-1.64 0.00132-3.29 0.00389-4.93 0.00781-0.763-0.00405-1.53-0.0081-2.31-0.0123-5.17 0.045-10.2 0.228-14 4.15z" fill="#060606"/>
<path transform="translate(342 632)" d="m0 0c4.98 2.94 7.93 6.22 9.9 11.7 1.1 4.76 0.744 8.23-1.75 12.5-2.51 3.5-4.97 6.63-8.72 8.83-6.06 0.885-12.9 1.39-18.2-2.12-3.64-3.31-5.52-6.49-6.12-11.5-0.28-6.4 0.357-10.3 4.31-15.4 5.63-6.01 13-7.03 20.6-3.96zm-16.8 9.44c-2.11 3.17-2.91 4.79-2.37 8.64 2.39 4.4 5.43 7.12 9.56 9.88 4.12 0 5.71-0.758 8.88-3.44 2.63-3.53 2.85-6.9 2.6-11.2-0.384-2.62-0.384-2.62-2.48-5.47-5.21-3.26-12.1-3.52-16.2 1.61z" fill="#060606"/>
<path transform="translate(480,733)" d="m0 0c4.51 2.1 7.09 4.39 9 9 1.25 5.61 1.58 10.8-0.793 16.1-3.11 4.87-7.15 8.17-12.6 10.1-6.04-0.312-11.3-1.75-15.6-6.18-3.52-4.89-5.25-8.98-5.06-15 1.8-5.94 5.04-9.44 10-13 4.42-2.21 10.2-1.42 15-1zm-12.1 7.38c-0.704 0.441-1.41 0.882-2.13 1.34-1.88 1.19-1.88 1.19-2.74 3.29-0.095 1.5-0.13 3-0.125 4.5-0.00258 0.794-0.00516 1.59-0.00781 2.41 3.25e-5 2.15 3.25e-5 2.15 1.13 4.09h2v2c3.87 2.06 6.9 2.3 11.1 1.59 2.12-0.546 2.12-0.546 4.37-2.59 2.07-4.13 2.8-7.49 1.5-12-2.29-2.89-4.83-5.11-8-7-3.36 0-4.35 0.605-7.12 2.38z" fill="#060606"/>
<path transform="translate(201,733)" d="m0 0c4.03 1.46 6.85 4.34 9 8 2.35 5.05 2.69 9.71 1 15-2.93 4.52-6.89 9.1-12 11-5.02 0.668-8.8 0.601-13.4-1.69-5.01-4.41-8.33-8.36-9-15.1 0.132-4.71 1.71-8.39 4.38-12.2 6.21-5.77 11.7-5.73 20-5zm-14.8 8.31c-2.32 3.26-2.52 6.79-2.2 10.7 1.52 3.69 3.46 6.13 7 8 4.48 0.663 6.46 0.321 10.4-2 2.78-3.18 3.69-4.81 3.93-8.94-0.561-3.75-2.7-6.41-5.31-9.06-5.11-3.4-9.21-2.93-13.8 1.31z" fill="#060606"/>
</svg>
