<svg version="1.2" xmlns="http://www.w3.org/2000/svg" viewBox="0 0 813 593" width="813" height="593"><style>.a{fill:#f19d15}.b{fill:#0889d3}.c{fill:#3a3a3a}.d{fill:#0a66ad}.e{fill:#c96807}.f{fill:#4c4c4c}</style><path class="a" d="m432.1 172.9c-0.2-16.4 0.3-32.1-0.9-47.7-0.5-7.8-4-15.4-6.3-23.3 1.1 0.5 3.1 1.3 4.9 2.3 7.1 3.8 14.2 7.7 21.3 11.5 8.3 4.5 12.6 11.1 12.3 20.8-0.3 10.6-0.3 21.4 0 32 0.2 9.1-3.5 15.4-11.7 19.4-6.4 3.1-12.4 6.7-19.6 10.7 0-9.1 0-17 0-25.7z"/><path class="b" d="m394.4 347.1c-11.6-6.3-23.6-11.9-34.7-19.1-3.3-2.1-5.1-8.5-5.4-13.1-0.7-12.4-0.3-24.7-0.2-37.1 0-7 2.9-12.3 9.3-15.7 6.8-3.6 13.5-7.4 21.3-11.7 0 20.7-0.2 40.4 0.1 60 0 6.4 0.3 13 1.9 19.1 1.5 5.9 4.8 11.2 7.5 17.2 0.2 0.4 0.2 0.4 0.2 0.4z"/><path class="a" d="m369.6 216c1.2 0.7 2 1.3 3.2 2-18.6 10.2-36.8 20.4-55.2 30.2-11.8 6.4-22.8 13.6-30.1 25.8 0-11.2-0.2-22.5 0.1-33.7 0.3-7 4.4-11.9 10.4-15.2 11.5-6.3 22.9-12.6 34.4-18.7 6.3-3.4 12.8-3.3 19.2-0.1 5.9 3 11.7 6.3 18 9.7z"/><path class="b" d="m380.6 149.7c16.2 9.2 19.2 17.2 15.5 42-5.5-3-10.9-5.8-16.3-8.7-13.5-7.4-27-14.9-40.6-22.2-11.2-6.1-22.9-10.6-36.6-10.7 11.6-6 22.8-12.7 34.9-17.3 4.5-1.8 11.2 0.4 16.2 2.6 9.1 4 17.6 9.3 26.9 14.3z"/><path class="b" d="m512.8 227.5c-8.6 4.5-17.3 9-25.8 13.7-8 4.4-15.7 4.7-23.6-0.1-6-3.5-12.1-6.6-19-10.3 17.6-9.6 34.8-18.7 51.8-28.2 7.2-4.1 14.3-8.6 20.7-13.8 4.8-3.9 8.5-9.2 14.4-15.8-1.5 15.6-2.8 29.3-4.8 43.8-4.9 4.1-9.3 7.4-13.7 10.7z"/><path class="a" d="m493 294.1c7 1.5 14.1 2.9 21.4 4.4-10.5 5.6-20.8 12.1-31.8 16.6-4.8 1.9-12 1.4-16.9-0.7-11.9-5.2-23.2-11.9-34.6-18.2-7.1-4-11-10.2-10.8-18.7 0.1-6.4 0-12.8 0-20.6 19.5 10.5 38.4 20.6 57.8 31.1 0.9 0.7 1.3 0.8 1.8 1.1 0.7 0.5 1.1 0.6 2.1 1 4 1.4 7.5 2.7 11 4z"/><path class="c" d="m73.9 383c5.3 0.4 10 0.5 14.6 1.4 4 0.8 7.5 3 5.7 8-1.6 4.6-5.2 3.4-8.9 2.2-16.4-5.1-28 4.1-26.9 21.2 0.7 12.3 9.9 19.8 22.3 18.2 2.1-0.3 4.2-1.7 6.2-1.5 2.6 0.3 5 1.7 7.5 2.6-1.2 2.2-1.8 5.6-3.7 6.5-18.3 9.7-41.9-3.4-43.6-24-1.5-18.9 7-30.1 26.8-34.6z"/><path fill-rule="evenodd" class="c" d="m257.2 417c2-10.5 7.2-17.6 17.5-19.8 9.5-2.1 16.8 1.7 22.1 9.3 1.9 2.7 2.8 6 3.7 9.2 1.6 5.9-1.3 8.5-7 8.5q-12.5 0-25 0c1.5 9.2 9.3 13.1 18.8 9.6 0.9-0.3 1.7-1.3 2.5-1.3 2.5 0.2 5 0.8 7.4 1.2-0.8 2.2-1.1 5.4-2.7 6.5-7.6 5.2-16.1 5.7-24.4 2-7.8-3.4-12.2-9.7-12.9-18.2-0.2-2.2 0-4.3 0-7zm23.4-1.4c2.9 0 5.9 0 9.4 0-1.6-7.3-6.2-9.4-12-9.4-5.8 0-9.6 2.8-10.3 9.4 4.1 0 7.8 0 12.9 0z"/><path fill-rule="evenodd" class="c" d="m104.8 406.4c8.8-10.4 22.7-12.8 32.8-5.9 9.4 6.5 12.8 20.5 7.4 31.2-5.3 10.7-18.2 15.5-29.8 11.1-13.6-5.2-18.2-20.9-10.4-36.4zm30 5.7c-6-6.6-12.1-7.8-18.1-3.5-5.4 3.9-7.2 12.2-4.1 18.7 3.1 6.5 9.5 9.3 15.9 7 6.1-2.2 9.7-9.8 8.3-17.2-0.3-1.4-0.9-2.7-2-5z"/><path fill-rule="evenodd" class="c" d="m411.8 406.3c7.9-9.3 18-12 28.4-7.9 9.3 3.6 14.8 13 14.1 23.9-0.6 10.3-7.4 18.7-17.1 21.3-9.9 2.6-20.2-1-25.6-9.4-5.7-9-5.7-18.3 0.2-27.9zm6.8 9.7c-1.4 10.1 2.2 17.2 9.6 18.7 7.1 1.4 12.9-2.3 15.1-9.7 2.2-7.1-0.9-14.7-7-17.6-6.6-3.1-12.8-0.5-17.7 8.6z"/><path class="c" d="m156.1 417.3c0-4.3-0.5-7.9 0.2-11.4 0.6-2.9 1.8-6.5 4-8.1 1.2-0.8 5 1.9 8.5 3.3 1.5-0.8 3.9-2.8 6.8-3.7 10.7-3.4 19.2 1.7 20.4 13 1 8.9 0.9 18 0.5 27-0.1 2.1-3.4 4.1-5.2 6.1-1.8-2.2-4.8-4.2-5-6.5-0.6-7-0.3-14.2-0.3-21.3 0-5.6-2.2-9.2-8.2-9.5-6.3-0.3-10.5 3.2-10.8 9.6-0.3 6.9 0.4 13.9-0.4 20.7-0.3 2.5-3.3 4.7-5.1 7-1.8-2.3-4.8-4.5-5.1-7-0.8-6.1-0.3-12.3-0.3-19.2z"/><path class="c" d="m207.8 427.1c0-7.3-0.3-14 0.2-20.6 0.2-3 1.3-7 3.4-8.4 1.5-1 5.4 1.6 9.2 2.9 1.2-0.7 3.4-2.6 6-3.5 10.5-3.8 19.5 1.2 20.8 12.4 1.2 9.4 1 18.9 0.6 28.4-0.1 1.8-3.3 4.3-5.4 4.8-1.2 0.3-4.4-3-4.6-4.8-0.5-7.1-0.3-14.3-0.3-21.4 0-5.8-1.5-10.5-8.5-10.7-6.8-0.2-10.6 3.7-10.8 11.2-0.1 6 0.1 11.9 0.1 17.8 0 4-0.2 8.2-5.5 8.2-5.1 0-5.1-4.1-5.2-7.7 0-2.6 0-5.3 0-8.6z"/><path class="c" d="m476.4 409.2c-1.3 6.5-2.2 12.5-2.9 18.5-0.3 3.1 0.6 6.4-0.2 9.3-0.7 2.4-3.2 4.3-4.8 6.5-1.8-2.3-5.1-4.5-5.2-6.8-0.6-10.7-0.5-21.4-0.1-32.1 0.2-2.5 2.3-5.7 4.5-6.9 1.2-0.7 4.3 2.1 6.1 3.1 5.1-1.3 10.6-3.6 16.2-3.7 7.7-0.2 12.1 4.3 12.8 12.5 0.8 9.4 0.7 19 0.3 28.5 0 1.9-3.2 3.6-5 5.4-1.7-1.9-4.6-3.7-4.8-5.7-0.7-6.6-0.2-13.3-0.3-20-0.2-11.5-5.5-14.5-16.6-8.6z"/><path class="c" d="m333.5 396.9c3.7 1.1 7.4 1.5 9.8 3.4 1.5 1.3 1.3 4.8 1.8 7.3-2.3 0.3-4.9 1.5-6.8 0.7-7.1-3-13.4-2.5-17.5 2.3-4.2 4.9-4.4 14-0.3 19.3 3.8 4.9 10.9 6.5 17.3 3.4 3.3-1.6 6.9-3.3 8 1.3 0.5 2-2.3 5.9-4.6 7.1-9.2 4.9-20.3 3.2-27.1-3.4-6.9-6.6-9-18.4-5.2-27.9 4-9.9 11.2-13.9 24.6-13.5z"/><path class="d" d="m412.1 324c9.1 5 17.8 9.7 28.1 15.2-9.6 4.9-17.8 9.2-26.2 13.1-3.7 1.7-7 0.8-9.6-3.2-7-10.7-12.3-21.8-12.3-35.7 6.7 3.6 13.1 7 20 10.6z"/><path class="d" d="m298.1 158.5c13.4-0.8 25.6 1.4 37.1 8.1-15.5 8.3-30.8 16.5-47.8 25.6 0.5-10.6 0.6-20.1 1.6-29.6 0.4-5 5.1-3.8 9.1-4.1z"/><path class="e" d="m413.6 129.1c-11.9-6.5-23.3-12.7-35.9-19.5 9-4.7 16.8-8.9 24.7-12.8 4.3-2.2 7.7-1.3 10.8 3.1 7.3 10.4 11.5 21.6 12.2 35.3-4.1-2.1-7.7-4-11.8-6.1z"/><path class="e" d="m529.9 264.3c-0.2 6.2-0.4 12.3-0.8 18.4-0.3 4.9-2.2 7.9-8 7.5-5.1-0.5-10.3-0.2-16.7-0.3-7.1-2-13-3.8-18.9-5.9-0.7-0.2-0.7-2.2-0.4-3.5 8.7-4.8 17-9.4 25.8-14.2 2-1 3.5-1.9 5-2.8 2.5-1.2 4.9-2.5 8.1-4.1 2.1-1.2 3.5-1.9 4.9-2.5 0 0 0.5 0.3 0.6 0.9 0.2 2.6 0.3 4.6 0.4 6.5z"/><path class="d" d="m498.6 160.1c0-6.2 0-11.6 0-18.4 9 5.1 17.1 9.3 24.9 14.2 3.5 2.1 4.3 5.3 1.8 9.6-6.3 11.1-13.5 21.2-26.7 27.3 0-11 0-21.5 0-32.7z"/><path class="e" d="m318.6 284.3c0 7.6 0 14.4 0 23-10.6-6.2-20-11.7-29.6-17.4 6.8-15 14.6-26.8 29.6-34.1 0 9.7 0 18.8 0 28.5z"/><path class="c" d="m369 392.9c1.2 2.2 2.1 5 3.5 5.2 3.6 0.7 8 0.4 7.1 5.4-0.3 1.8-4.9 2.8-7.5 4.1-0.7 0.3-1.4 0.3-3 0.7 0 7.3-0.3 14.9 0.2 22.4 0.1 1.3 3.4 2.5 5.3 3.7 1.6 1 3.3 1.8 4.9 2.7-1 1.7-1.7 4-3.2 4.9-8 4.9-17.1 0.1-17.5-9.2-0.4-8.1-0.1-16.2-0.1-22.1-3.7-3.4-6.2-5.6-8.7-7.8 2.3-2 4.6-4 7.6-6.7 1.4-2.2 3.5-5.5 5.5-8.8 2 1.6 3.9 3.3 5.9 5.5z"/><path fill-rule="evenodd" class="f" d="m697 426.2c0.6-5.4 0.3-10.6 1.9-15.1 3.3-9.2 13-13.5 22.7-11.2 9.1 2.2 13.9 9.3 13.3 20.4-11.2 0-22.5 0-34.1 0-1.2 7.2 0.8 12.9 6.1 16.7 9.7 7 18.9 4.1 28.2-4.6-3.5 9-9.1 12.3-17.8 11.8-11.1-0.5-16.7-5.4-20.3-18zm29.8-19.4c-12.3-7.7-24.2-3-25.1 10 9.9 0 19.7 0 31.1 0-2-3.7-3.6-6.5-6-10z"/><path fill-rule="evenodd" class="f" d="m594.4 444.3c-21.2-0.6-26.3-23-17.7-36.5 4.4-7 13.7-10.1 22-7.6 8.3 2.5 12.6 8.9 12.7 20.1-11.4 0-22.9 0-34.2 0-1 10.3 3.3 17.3 11.3 19.7 8.5 2.5 15.5-0.6 22.2-5.8-3.4 6.4-8.2 10.4-16.3 10.1zm10-36.2c-5-5-11-6.8-17.5-4.1-5.5 2.2-9 6.5-9.8 12.7 10.5 0 20.4 0 31.1 0-1.2-3.1-2.1-5.4-3.8-8.6z"/><path class="f" d="m517.5 401.9c8.4-21.4 34.8-25.1 47.4-11-2.3-0.8-4.6-1.5-6.8-2.5-13.9-6-27.4-2.2-34.9 10-7 11.6-4.3 28.4 6.4 37 8.9 7.2 18.8 6.8 28.9 2.7 2-0.8 4-1.8 7.2-3.3-5 9.3-19.3 12-31.2 7.2-15.5-6.2-22.4-22.3-17-40.1z"/><path class="f" d="m399.6 415.9c0 7.3 0.4 14-0.3 20.6-0.3 2.5-2.9 6.4-5 6.8-4.7 0.8-5.5-3.3-5.5-7.1 0-10.5-0.4-20.9 0.2-31.3 0.2-2.7 3.5-5.1 5.3-7.7 1.8 2.5 4.3 4.7 5 7.4 0.9 3.3 0.3 7 0.3 11.3z"/><path class="f" d="m658.3 436.7c-0.1 2.6-0.3 4.6-0.4 6.5q-1 0.2-2 0.4c-0.5-1.7-1.3-3.4-1.3-5.1-0.2-7.3 0-14.7-0.1-22.1-0.2-9-3.6-13.2-11-13.6-8.7-0.4-16 4.9-16.6 13-0.6 7.1-0.2 14.3-0.3 21.4 0 2.1-0.5 4.1-0.8 6.2q-1-0.1-2-0.2c0-14 0-28 0-44 2.1 3 3 4.4 4.2 6 1.5-0.9 3.1-1.9 4.6-2.8 12.9-7.9 24.8-2 25.6 13 0.4 6.8 0.1 13.7 0.1 21.3z"/><path class="f" d="m679.1 389.1c0.4 3.7 0.6 7 0.7 10.2 3.8 0.4 7.1 0.8 10.4 1.2q0.1 1.2 0.1 2.4c-3.3 0.4-6.5 0.8-10.6 1.4 0 10.4-0.4 21 0.3 31.6 0.1 2.1 3.9 3.9 6.8 6.6-1.6 0.2-4.3 1.5-5.5 0.6-2.3-1.5-4.9-4.2-5.1-6.5-0.7-7.8-0.3-15.7-0.4-23.5 0-2.6 0-5.3 0-8.2-2.9-0.8-5.7-1.6-8.5-2.4q0-0.8-0.1-1.6c2.5-0.6 5-1.2 8.6-2 0-2.5-0.3-5.3 0.1-8 0.2-0.9 1.9-1.6 3.2-1.8z"/><path fill-rule="evenodd" class="f" d="m515.4 500.2c-6.6 2.6-5.7-4.1-8.2-6.8-2.3-2.5-2.8-7.6-8.1-5.1-2.1 4.2 1.5 9.8-4.2 14.9 0-12.3 0-22.7 0-34 6.7 1 14.8-3.2 19.5 5.1 3.3 6-0.7 10.3-5.8 13.3 2.4 4.3 4.5 8.2 6.8 12.6zm-12.4-15.9c4.1-0.7 9-1.2 7.9-6.7-1.4-7.2-7.4-4.1-12.6-4 3.1 3.2-4.4 9 4.7 10.7z"/><path class="f" d="m252 469c2 1.4 4.5 2.4 5.8 4.3 4 6.1 7.5 12.6 12.2 20.7 0-5.6 0-9.4 0-13.2 0-3.7 0-7.4 0-11.6 4.5 2.1 5.8 17.8 3.1 33.8-8.6-6.9-10.7-17-18.6-24q0 11.3 0 22.5-1.6-0.1-3.2-0.2c0-7.5 0-15.1 0-23.9 0.3-3.7 0.5-6 0.7-8.4z"/><path fill-rule="evenodd" class="f" d="m380.7 468.9c8-0.8 12.9 2.3 15.3 9.3 2.6 7.5 0.8 16.3-4.2 20.4-5.3 4.6-14 3.8-18.4-1.6-7.2-8.9-3.7-23.3 7.3-28.1zm0.5 28.7c9.9-0.1 15.2-11.2 9.4-20.5-1.3-2.2-4.7-4.2-7.2-4.2-2.5 0-5.8 2.1-7.2 4.2-4.2 6.2-2.2 14.8 5 20.5z"/><path fill-rule="evenodd" class="f" d="m460.1 486.9c0.8-4.2 1.4-7.9 2.4-11.5 0.4-1.3 1.4-2.5 2.5-3.4 4.6-4 9.8-4.5 15.2-1.8 5.8 3 8.7 11.9 6.7 20.2-1.6 6.3-5.2 10.6-12.1 11.1-6.4 0.5-10.9-2.5-13.2-8.5-0.7-1.7-1-3.6-1.5-6.1zm15.9 10.6c7.4-4.7 9.9-15.8 4-21.7-2.2-2.1-8.5-3.1-11-1.5-5.2 3.2-5.4 9.6-4 15.3 1.2 4.9 3.9 8.7 11 7.9z"/><path class="f" d="m288.3 486.5c-0.9 3.5-1.2 6.7-1.5 10.8 5.2 0 9.8 0 14.7 0-2 4.7-4.1 5-18.5 3.7 0-10.4 0-20.7 0-30.7 6.2 0 12.1 0 18 0q0.1 1 0.1 2.1c-4.5 0.3-9 0.5-13.8 0.8 0 3.1 0 5.8 0 8.9 4 0.4 7.7 0.7 11.5 1q0.1 1.4 0.1 2.7c-3.3 0.2-6.7 0.3-10.6 0.7z"/><path fill-rule="evenodd" class="f" d="m223.5 470.3c1.9-0.5 3.8-1.1 6.1-1.8 3 0.5 5.6 1.2 8.9 2.4 2.1 2.6 3.5 4.5 4.9 6.5 0.3 3.3 1.1 6.5 1 9.7-0.2 5.7-2.3 10.7-7.8 13.2-5.8 2.6-11 1.5-15.9-3.2-1.2-2.3-2-4.3-3-7.2-1.1-8.1 0.5-14.5 5.8-19.6zm14.9 6.8c-3.2-1.4-6.6-4.3-9.5-3.8-2.5 0.4-6 4.3-6.4 7-0.6 4.3-0.1 9.5 1.8 13.4 2.8 6 10.9 6 13.4 0 1.8-4.6 0.8-10.3 0.7-16.6z"/><path fill-rule="evenodd" class="f" d="m552.3 495.9c0.5 2 0.7 3.5 1 5.1q-1.2 0.5-2.3 1c-1.6-3.3-3.2-6.6-4.8-9.7-10.1-5.6-12.1 4.1-16.2 10.2q-0.9-0.8-1.9-1.6c2.2-6.8 4-13.6 6.6-20.2 1.6-4 4.3-7.6 6.6-11.4 1.9 3.7 4.2 7.4 5.8 11.3 1.9 4.9 3.3 9.9 5.2 15.3zm-10.2-8.1c0.8-1.1 2.3-2.3 2.1-3.2-0.7-3.4-1.9-6.7-3.3-11.2-1.4 4.3-2.9 7.3-3.3 10.4-0.1 1.2 2.1 2.7 4.5 4z"/><path class="f" d="m321.4 500.9c-2.2-1.5-3.9-2.7-5.7-3.8q0.2-0.8 0.3-1.6c1.3 0 2.6-0.2 3.8 0 3 0.6 5.9 1.7 8.9 1.8 1.4 0 3.8-1.9 4-3.1 0.2-1.7-0.8-4.2-2.1-5.4-1.7-1.5-4.1-2.3-6.3-3.1-5.2-2.2-8.6-5.5-6.6-11.5 1.7-4.8 8.5-7 14-4.6 1.7 0.7 3.1 2 4.6 3.1q-0.4 0.8-0.8 1.5c-3-0.5-6.1-1.4-9.1-1.4-1.6 0-4.3 1.5-4.4 2.6-0.2 1.7 0.9 4 2.2 5.2 1.7 1.5 4.2 2.2 6.4 3.2 4.5 1.9 7.8 4.7 6.8 10.2-1.1 5.9-5.5 7.3-10.6 7.6-1.6 0-3.3-0.3-5.4-0.7z"/><path fill-rule="evenodd" class="f" d="m348 491.5c-0.2 3.7-0.4 6.8-0.6 9.9q-1.5 0-3.1 0c-1.2-10.3-0.3-20.7-0.5-32 4.6 0 8.7-0.2 12.9 0.1 5.6 0.4 8.7 3.6 8.6 9.3-0.1 5.5-3.2 8.6-8.6 9.7-2.9 0.5-5.8 1.5-8.7 3zm6.6-18.7c-2 0-4.1 0-6.4 0 0 4.3 0 7.9 0 12.3 5-0.6 10.6 1.8 12.7-4.8 1.3-4-0.5-6.9-6.3-7.5z"/><path class="f" d="m748.6 443.8c-0.5-1.4-1.1-2.8-1.7-4.7-0.1-12.9-0.1-25.4-0.1-37.9q0.8-0.2 1.7-0.4c1.2 1.6 2.4 3.3 3.8 5.2 5.4-3.9 10.3-9.6 19.2-4.6-4.5 1-8.2 1-10.9 2.6-6.6 3.8-10 10-10.1 17.7-0.2 4.8-0.1 9.5 0.1 14.9-0.2 2.5-0.5 4.4-1.3 6.7-0.5 0.5-0.7 0.5-0.7 0.5z"/><path class="f" d="m403.8 472.9c-1.6-0.4-2.6-0.7-3.7-1 0.3-0.9 0.6-2.4 0.9-2.4 7.3-0.1 14.6-0.1 22-0.1q0.1 1.4 0.1 2.9c-2.8 0.3-5.6 0.6-9.7 1.1 0 9.2 0 18.6 0 28q-1.3 0.2-2.5 0.3c-0.5-1.4-1.4-2.9-1.5-4.3-0.1-6.7-0.3-13.3 0-19.9 0.2-4-1.5-5.1-5.6-4.6z"/><path class="f" d="m442.9 498.3c-0.8 2-1.6 3.5-2.4 4.9q-0.7-0.3-1.4-0.5c-0.2-1.2-0.5-2.3-0.5-3.5-0.1-9.2-0.1-18.4-0.1-27.6 6.5 0 12.5 0 18.5 0q0 1 0.1 2.1c-4.5 0.3-8.9 0.6-13.8 0.9 0 3 0 6 0 9.2 3.8 0.6 7.7 1.3 11.6 1.9q-0.3 1.3-0.5 2.5c-3.7 0.2-7.3 0.4-11.5 0.7 0 3.1 0 5.9 0 9.4z"/><path class="f" d="m558.4 485.8c0-5.9 0-11.2 0-16.5q1.4-0.1 2.8-0.1c3.6 8.7 0.1 18.3 2 27.8 4.2 0.3 8.5 0.5 13.1 0.7-2.3 4.4-2.4 4.4-17.9 3.3 0-4.7 0-9.6 0-15.2z"/><path class="f" d="m599.1 501c-5.8 0.3-11 0.3-16.1 0.3-2.8-9.4-1.7-29.4 2.5-32.6 0 9.7 0 18.8 0 28.7 4 0 7.3-0.3 10.5 0.1 1.3 0.2 2.4 2.1 3.1 3.5z"/><path class="f" d="m389.5 404.4c0.4-3.1 0.4-6.4 2.1-8 1.1-1.1 5-0.2 6.9 1 1.1 0.7 1.5 4.2 0.8 5.7-2.2 4.5-5.9 3.4-9.8 1.3z"/></svg>